<svg width="17" height="16" viewBox="0 0 17 16" fill="none" xmlns="http://www.w3.org/2000/svg">
<path d="M8.75464 0C9.01986 0 9.27421 0.105357 9.46175 0.292893C9.64928 0.48043 9.75464 0.734784 9.75464 1V7H15.7546C16.0199 7 16.2742 7.10536 16.4617 7.29289C16.6493 7.48043 16.7546 7.73478 16.7546 8C16.7546 8.26522 16.6493 8.51957 16.4617 8.70711C16.2742 8.89464 16.0199 9 15.7546 9H9.75464V15C9.75464 15.2652 9.64928 15.5196 9.46175 15.7071C9.27421 15.8946 9.01986 16 8.75464 16C8.48942 16 8.23507 15.8946 8.04753 15.7071C7.86 15.5196 7.75464 15.2652 7.75464 15V9H1.75464C1.48942 9 1.23507 8.89464 1.04753 8.70711C0.859996 8.51957 0.754639 8.26522 0.754639 8C0.754639 7.73478 0.859996 7.48043 1.04753 7.29289C1.23507 7.10536 1.48942 7 1.75464 7H7.75464V1C7.75464 0.734784 7.86 0.48043 8.04753 0.292893C8.23507 0.105357 8.48942 0 8.75464 0Z" fill="black"/>
</svg>
