<svg width="14" height="14" viewBox="0 0 14 14" fill="none" xmlns="http://www.w3.org/2000/svg">
<path d="M6.0208 12.0411C4.83 12.0411 3.66594 11.688 2.67582 11.0265C1.68571 10.3649 0.914008 9.42464 0.458308 8.32452C0.00260868 7.22441 -0.116623 6.01388 0.115691 4.84601C0.348004 3.67813 0.92143 2.60537 1.76345 1.76338C2.60548 0.921393 3.67828 0.34799 4.8462 0.115686C6.01412 -0.116618 7.2247 0.00260857 8.32486 0.45829C9.42501 0.913972 10.3653 1.68564 11.0269 2.67572C11.6885 3.66579 12.0416 4.8298 12.0416 6.02056C12.0416 6.81119 11.8859 7.59408 11.5833 8.32452C11.2807 9.05497 10.8372 9.71867 10.2781 10.2777C9.71906 10.8368 9.05533 11.2803 8.32486 11.5828C7.59438 11.8854 6.81146 12.0411 6.0208 12.0411ZM6.0208 1.20731C5.07195 1.20731 4.14442 1.48867 3.35548 2.0158C2.56654 2.54292 1.95164 3.29215 1.58854 4.16874C1.22543 5.04532 1.13042 6.00989 1.31553 6.94046C1.50064 7.87104 1.95756 8.72583 2.62849 9.39674C3.29943 10.0676 4.15425 10.5245 5.08486 10.7096C6.01548 10.8947 6.98008 10.7997 7.8567 10.4367C8.73332 10.0736 9.48258 9.45868 10.0097 8.66978C10.5369 7.88088 10.8182 6.95337 10.8182 6.00457C10.8182 4.73226 10.3128 3.51206 9.41311 2.6124C8.51341 1.71274 7.29316 1.20731 6.0208 1.20731Z" fill="#A4A4A4"/>
<path d="M13.4009 14C13.3221 14.0004 13.244 13.985 13.1712 13.9548C13.0985 13.9246 13.0325 13.8802 12.9771 13.8241L9.67486 10.522C9.56894 10.4083 9.51127 10.258 9.51401 10.1026C9.51675 9.94728 9.57969 9.79905 9.68956 9.68919C9.79943 9.57932 9.94766 9.51638 10.103 9.51364C10.2584 9.5109 10.4087 9.56857 10.5224 9.67449L13.8247 12.9766C13.937 13.089 14 13.2414 14 13.4004C14 13.5593 13.937 13.7117 13.8247 13.8241C13.7693 13.8802 13.7033 13.9246 13.6305 13.9548C13.5577 13.985 13.4797 14.0004 13.4009 14Z" fill="#A4A4A4"/>
</svg>
